<svg width="16" height="16" viewBox="0 0 16 16" fill="none" xmlns="http://www.w3.org/2000/svg">
<path d="M7.53317 12.8666C7.41095 12.7444 7.34695 12.5888 7.34117 12.4C7.3354 12.2111 7.39384 12.0555 7.51651 11.9333L10.7832 8.66662H3.33317C3.14428 8.66662 2.98584 8.60262 2.85784 8.47462C2.72984 8.34662 2.66606 8.1884 2.66651 7.99995C2.66651 7.81106 2.73051 7.65262 2.85851 7.52462C2.98651 7.39662 3.14473 7.33284 3.33317 7.33328H10.7832L7.51651 4.06662C7.39428 3.9444 7.33584 3.78884 7.34117 3.59995C7.34651 3.41106 7.41051 3.25551 7.53317 3.13328C7.6554 3.01106 7.81095 2.94995 7.99984 2.94995C8.18873 2.94995 8.34428 3.01106 8.46651 3.13328L12.8665 7.53328C12.9332 7.58884 12.9805 7.6584 13.0085 7.74195C13.0365 7.82551 13.0503 7.91151 13.0498 7.99995C13.0498 8.08884 13.0361 8.17217 13.0085 8.24995C12.981 8.32773 12.9336 8.39995 12.8665 8.46662L8.46651 12.8666C8.34428 12.9888 8.18873 13.05 7.99984 13.05C7.81095 13.05 7.6554 12.9888 7.53317 12.8666Z" fill="#FFAA05"/>
</svg>
