<svg width="58" height="56" viewBox="0 0 58 56" fill="none" xmlns="http://www.w3.org/2000/svg">
<path d="M15.4694 55.0667C14.7622 55.0667 14.0597 55.1777 13.3889 55.3952C12.1505 55.7962 10.8537 56.0004 9.54838 56C8.28875 55.9988 7.08114 55.5115 6.1909 54.6452C5.30065 53.7789 4.80059 52.6045 4.80059 51.38C4.80053 50.7733 4.92345 50.1725 5.16233 49.612C5.4012 49.0515 5.75135 48.5422 6.19276 48.1133L7.39771 46.9467C8.83952 45.5449 9.86233 43.7887 10.3568 41.8656C10.6878 40.5712 11.455 39.4217 12.5361 38.6003C13.6171 37.7789 14.9499 37.3329 16.322 37.3333C17.6935 37.3326 19.0258 37.778 20.1067 38.5985C21.1877 39.4189 21.9553 40.5674 22.2872 41.8609C22.7823 43.7862 23.8068 45.5442 25.2511 46.9467L26.4513 48.1133C26.8927 48.5422 27.2428 49.0515 27.4817 49.612C27.7206 50.1725 27.8435 50.7733 27.8434 51.38C27.8434 52.6053 27.3427 53.7804 26.4514 54.6468C25.5602 55.5133 24.3513 56 23.0908 56C21.7856 56.0004 20.4888 55.7962 19.2504 55.3952C18.5811 55.1782 17.8802 55.0672 17.1746 55.0667H15.4694Z" fill="#FFAA05"/>
<path d="M3.84047 44.8C5.96151 44.8 7.68095 42.7107 7.68095 40.1333C7.68095 37.556 5.96151 35.4667 3.84047 35.4667C1.71944 35.4667 0 37.556 0 40.1333C0 42.7107 1.71944 44.8 3.84047 44.8Z" fill="#FFAA05"/>
<path d="M11.5214 35.4667C13.6425 35.4667 15.3619 33.3773 15.3619 30.8C15.3619 28.2227 13.6425 26.1333 11.5214 26.1333C9.40039 26.1333 7.68095 28.2227 7.68095 30.8C7.68095 33.3773 9.40039 35.4667 11.5214 35.4667Z" fill="#FFAA05"/>
<path d="M21.1226 35.4667C23.2436 35.4667 24.9631 33.3773 24.9631 30.8C24.9631 28.2227 23.2436 26.1333 21.1226 26.1333C19.0016 26.1333 17.2821 28.2227 17.2821 30.8C17.2821 33.3773 19.0016 35.4667 21.1226 35.4667Z" fill="#FFAA05"/>
<path d="M28.8036 44.8C30.9246 44.8 32.644 42.7107 32.644 40.1333C32.644 37.556 30.9246 35.4667 28.8036 35.4667C26.6825 35.4667 24.9631 37.556 24.9631 40.1333C24.9631 42.7107 26.6825 44.8 28.8036 44.8Z" fill="#FFAA05"/>
<path d="M40.4325 28.9333C39.7253 28.9334 39.0228 29.0443 38.3519 29.2619C37.1151 29.6624 35.8199 29.8666 34.5163 29.8667C33.2558 29.8667 32.047 29.3799 31.1557 28.5135C30.2644 27.6471 29.7637 26.472 29.7637 25.2467C29.7636 24.64 29.8865 24.0392 30.1254 23.4787C30.3643 22.9182 30.7144 22.4089 31.1558 21.98L32.3608 20.8133C33.8026 19.4116 34.8254 17.6553 35.3199 15.7323C35.6509 14.4378 36.4181 13.2884 37.4991 12.467C38.5802 11.6456 39.913 11.1996 41.2851 11.2C42.6566 11.1993 43.9888 11.6447 45.0698 12.4651C46.1508 13.2856 46.9184 14.434 47.2503 15.7276C47.7453 17.6528 48.7699 19.4109 50.2142 20.8133L51.4143 21.98C51.8558 22.4089 52.2059 22.9182 52.4448 23.4787C52.6837 24.0392 52.8066 24.64 52.8065 25.2467C52.8065 25.8534 52.6836 26.4541 52.4447 27.0147C52.2059 27.5752 51.8558 28.0845 51.4145 28.5135C50.9732 28.9425 50.4493 29.2828 49.8727 29.515C49.2961 29.7472 48.678 29.8667 48.0539 29.8667C46.7503 29.8666 45.4551 29.6624 44.2183 29.2619C43.5474 29.0443 42.8449 28.9334 42.1377 28.9333H40.4325Z" fill="#FFAA05"/>
<path d="M28.8036 18.6667C30.9246 18.6667 32.644 16.5773 32.644 14C32.644 11.4227 30.9246 9.33333 28.8036 9.33333C26.6825 9.33333 24.9631 11.4227 24.9631 14C24.9631 16.5773 26.6825 18.6667 28.8036 18.6667Z" fill="#FFAA05"/>
<path d="M36.4845 9.33333C38.6055 9.33333 40.325 7.244 40.325 4.66667C40.325 2.08934 38.6055 0 36.4845 0C34.3635 0 32.644 2.08934 32.644 4.66667C32.644 7.244 34.3635 9.33333 36.4845 9.33333Z" fill="#FFAA05"/>
<path d="M46.0857 9.33333C48.2067 9.33333 49.9262 7.244 49.9262 4.66667C49.9262 2.08934 48.2067 0 46.0857 0C43.9647 0 42.2452 2.08934 42.2452 4.66667C42.2452 7.244 43.9647 9.33333 46.0857 9.33333Z" fill="#FFAA05"/>
<path d="M53.7666 18.6667C55.8877 18.6667 57.6071 16.5773 57.6071 14C57.6071 11.4227 55.8877 9.33333 53.7666 9.33333C51.6456 9.33333 49.9262 11.4227 49.9262 14C49.9262 16.5773 51.6456 18.6667 53.7666 18.6667Z" fill="#FFAA05"/>
</svg>
