<svg width="360" height="56" viewBox="0 0 360 56" fill="none" xmlns="http://www.w3.org/2000/svg">
<path d="M69.8813 47.2889V15.7049H86.6564C90.4969 15.7049 93.385 16.6308 95.3206 18.4825C97.2562 20.3044 98.224 22.7684 98.224 25.8745C98.224 28.9508 97.2562 31.4148 95.3206 33.2665C93.385 35.1182 90.4969 36.0441 86.6564 36.0441H79.8358V47.2889H69.8813ZM79.8358 28.6969H85.32C86.4875 28.6969 87.3477 28.458 87.9008 27.9801C88.4538 27.4724 88.7303 26.7705 88.7303 25.8745C88.7303 24.9785 88.4538 24.2916 87.9008 23.8137C87.3477 23.306 86.4875 23.0521 85.32 23.0521H79.8358V28.6969Z" fill="#FFAA05"/>
<path d="M101.88 47.2889V15.7049H117.872C121.712 15.7049 124.677 16.6009 126.766 18.3929C128.856 20.1849 129.9 22.6638 129.9 25.8297C129.9 27.9204 129.424 29.7273 128.472 31.2505C127.55 32.7438 126.183 33.9086 124.37 34.7449C122.557 35.5513 120.361 35.9545 117.78 35.9545L118.102 34.6553H120.821C122.173 34.6553 123.387 35.0436 124.462 35.8201C125.538 36.5668 126.429 37.5524 127.135 38.7769L132.159 47.2889H121.236L115.66 37.3433C115.414 36.8953 115.015 36.5817 114.462 36.4025C113.909 36.1934 113.34 36.0889 112.756 36.0889H111.835V47.2889H101.88ZM111.835 29.3241H116.075C117.488 29.3241 118.563 29.0702 119.301 28.5625C120.038 28.0249 120.407 27.2185 120.407 26.1433C120.407 25.098 120.038 24.3214 119.301 23.8137C118.563 23.306 117.488 23.0521 116.075 23.0521H111.835V29.3241Z" fill="#FFAA05"/>
<path d="M135.049 47.2889V15.7049H159.152V23.0521H144.543V27.5769H158.046V34.9241H144.543V39.9417H159.152V47.2889H135.049Z" fill="#FFAA05"/>
<path d="M170.864 47.2889V23.5001H161.463V15.7049H190.22V23.5001H180.819V47.2889H170.864Z" fill="#FFAA05"/>
<path d="M201.423 47.2889V23.5001H192.022V15.7049H220.779V23.5001H211.378V47.2889H201.423Z" fill="#FFAA05"/>
<path d="M232.76 47.2889V32.1017L234.696 37.2985L219.856 15.7049H231.285L238.797 27.4425H236.908L244.466 15.7049H255.572L240.733 37.2985L242.714 32.1017V47.2889H232.76Z" fill="#FFAA05"/>
<path d="M257.457 47.2889V15.7049H270.085C273.434 15.7049 276.014 16.4814 277.827 18.0345C279.671 19.5876 280.592 21.7678 280.592 24.5753C280.592 27.323 279.671 29.4884 277.827 31.0713C276.014 32.6542 273.434 33.4457 270.085 33.4457H260.315V47.2889H257.457ZM260.315 31.0265H269.9C272.45 31.0265 274.386 30.474 275.707 29.3689C277.028 28.234 277.689 26.6361 277.689 24.5753C277.689 22.5145 277.028 20.9166 275.707 19.7817C274.386 18.6468 272.45 18.0793 269.9 18.0793H260.315V31.0265Z" fill="#FFAA05"/>
<path d="M280.743 47.2889L294.891 15.7049H297.472L311.851 47.2889H308.855L304.799 38.1945L306.136 38.8665H286.135L287.702 38.1945L283.738 47.2889H280.743ZM296.135 19.0649L288.255 37.0297L287.195 36.4921H305.076L304.293 37.0297L296.228 19.0649H296.135Z" fill="#FFAA05"/>
<path d="M323.684 47.2889L312.44 15.7049H315.435L325.851 45.3177H324.33L335.16 15.7049H337.556L347.879 45.3177H346.497L357.143 15.7049H360L348.617 47.2889H345.898L335.897 18.5273H336.819L326.311 47.2889H323.684Z" fill="#FFAA05"/>
<path d="M15.4694 55.0667C14.7622 55.0667 14.0597 55.1777 13.3889 55.3952C12.1505 55.7962 10.8537 56.0004 9.54838 56C8.28874 55.9988 7.08114 55.5115 6.1909 54.6452C5.30065 53.7789 4.80059 52.6045 4.80059 51.38C4.80053 50.7733 4.92345 50.1725 5.16233 49.612C5.4012 49.0515 5.75135 48.5422 6.19276 48.1133L7.39771 46.9467C8.83952 45.545 9.86233 43.7887 10.3568 41.8656C10.6878 40.5712 11.455 39.4217 12.5361 38.6003C13.6171 37.7789 14.9499 37.3329 16.322 37.3333C17.6935 37.3326 19.0258 37.778 20.1067 38.5985C21.1877 39.4189 21.9553 40.5674 22.2872 41.8609C22.7823 43.7862 23.8068 45.5442 25.2511 46.9467L26.4513 48.1133C26.8927 48.5422 27.2428 49.0515 27.4817 49.612C27.7206 50.1725 27.8435 50.7733 27.8434 51.38C27.8434 52.6053 27.3427 53.7804 26.4514 54.6468C25.5602 55.5133 24.3513 56 23.0908 56C21.7856 56.0004 20.4888 55.7962 19.2504 55.3952C18.5811 55.1782 17.8802 55.0672 17.1746 55.0667H15.4694Z" fill="#FFAA05"/>
<path d="M3.84047 44.8C5.96151 44.8 7.68095 42.7107 7.68095 40.1333C7.68095 37.556 5.96151 35.4667 3.84047 35.4667C1.71944 35.4667 0 37.556 0 40.1333C0 42.7107 1.71944 44.8 3.84047 44.8Z" fill="#FFAA05"/>
<path d="M11.5214 35.4667C13.6425 35.4667 15.3619 33.3773 15.3619 30.8C15.3619 28.2227 13.6425 26.1333 11.5214 26.1333C9.40039 26.1333 7.68095 28.2227 7.68095 30.8C7.68095 33.3773 9.40039 35.4667 11.5214 35.4667Z" fill="#FFAA05"/>
<path d="M21.1226 35.4667C23.2436 35.4667 24.9631 33.3773 24.9631 30.8C24.9631 28.2227 23.2436 26.1333 21.1226 26.1333C19.0016 26.1333 17.2821 28.2227 17.2821 30.8C17.2821 33.3773 19.0016 35.4667 21.1226 35.4667Z" fill="#FFAA05"/>
<path d="M28.8036 44.8C30.9246 44.8 32.644 42.7107 32.644 40.1333C32.644 37.556 30.9246 35.4667 28.8036 35.4667C26.6825 35.4667 24.9631 37.556 24.9631 40.1333C24.9631 42.7107 26.6825 44.8 28.8036 44.8Z" fill="#FFAA05"/>
<path d="M40.4325 28.9333C39.7253 28.9334 39.0228 29.0443 38.3519 29.2619C37.1151 29.6624 35.8199 29.8666 34.5163 29.8667C33.2558 29.8667 32.047 29.3799 31.1557 28.5135C30.2644 27.6471 29.7637 26.472 29.7637 25.2467C29.7636 24.64 29.8865 24.0392 30.1254 23.4787C30.3643 22.9182 30.7144 22.4089 31.1558 21.98L32.3608 20.8133C33.8026 19.4116 34.8254 17.6553 35.3199 15.7323C35.6509 14.4378 36.4181 13.2884 37.4991 12.467C38.5802 11.6456 39.913 11.1996 41.2851 11.2C42.6566 11.1993 43.9888 11.6447 45.0698 12.4651C46.1508 13.2856 46.9184 14.434 47.2503 15.7276C47.7453 17.6528 48.7699 19.4109 50.2142 20.8133L51.4143 21.98C51.8558 22.4089 52.2059 22.9182 52.4448 23.4787C52.6837 24.0392 52.8066 24.64 52.8065 25.2467C52.8065 25.8534 52.6836 26.4541 52.4447 27.0147C52.2059 27.5752 51.8558 28.0845 51.4145 28.5135C50.9732 28.9425 50.4493 29.2828 49.8727 29.515C49.2961 29.7472 48.678 29.8667 48.0539 29.8667C46.7503 29.8666 45.4551 29.6624 44.2183 29.2619C43.5474 29.0443 42.8449 28.9334 42.1377 28.9333H40.4325Z" fill="#FFAA05"/>
<path d="M28.8036 18.6667C30.9246 18.6667 32.644 16.5773 32.644 14C32.644 11.4227 30.9246 9.33333 28.8036 9.33333C26.6825 9.33333 24.9631 11.4227 24.9631 14C24.9631 16.5773 26.6825 18.6667 28.8036 18.6667Z" fill="#FFAA05"/>
<path d="M36.4845 9.33333C38.6055 9.33333 40.325 7.244 40.325 4.66667C40.325 2.08934 38.6055 0 36.4845 0C34.3635 0 32.644 2.08934 32.644 4.66667C32.644 7.244 34.3635 9.33333 36.4845 9.33333Z" fill="#FFAA05"/>
<path d="M46.0857 9.33333C48.2067 9.33333 49.9262 7.244 49.9262 4.66667C49.9262 2.08934 48.2067 0 46.0857 0C43.9646 0 42.2452 2.08934 42.2452 4.66667C42.2452 7.244 43.9646 9.33333 46.0857 9.33333Z" fill="#FFAA05"/>
<path d="M53.7666 18.6667C55.8877 18.6667 57.6071 16.5773 57.6071 14C57.6071 11.4227 55.8877 9.33333 53.7666 9.33333C51.6456 9.33333 49.9262 11.4227 49.9262 14C49.9262 16.5773 51.6456 18.6667 53.7666 18.6667Z" fill="#FFAA05"/>
</svg>
