<svg width="200" height="32" viewBox="0 0 200 32" fill="none" xmlns="http://www.w3.org/2000/svg">
<path d="M38.8229 27.0222V8.97422H48.1425C50.2761 8.97422 51.8805 9.50329 52.9559 10.5614C54.0312 11.6025 54.5689 13.0105 54.5689 14.7854C54.5689 16.5433 54.0312 17.9513 52.9559 19.0094C51.8805 20.0676 50.2761 20.5966 48.1425 20.5966H44.3532V27.0222H38.8229ZM44.3532 16.3982H47.4C48.0486 16.3982 48.5265 16.2617 48.8338 15.9886C49.141 15.6985 49.2946 15.2974 49.2946 14.7854C49.2946 14.2734 49.141 13.8809 48.8338 13.6078C48.5265 13.3177 48.0486 13.1726 47.4 13.1726H44.3532V16.3982Z" fill="black"/>
<path d="M56.6001 27.0222V8.97422H65.4844C67.618 8.97422 69.2651 9.48622 70.4258 10.5102C71.5865 11.5342 72.1668 12.9508 72.1668 14.7598C72.1668 15.9545 71.9023 16.987 71.3731 17.8574C70.8611 18.7108 70.1015 19.3764 69.0945 19.8542C68.0874 20.315 66.867 20.5454 65.4332 20.5454L65.6124 19.803H67.123C67.874 19.803 68.5483 20.0249 69.1457 20.4686C69.7431 20.8953 70.2381 21.4585 70.6307 22.1582L73.4214 27.0222H67.3534L64.2555 21.339C64.1189 21.083 63.897 20.9038 63.5898 20.8014C63.2825 20.682 62.9668 20.6222 62.6425 20.6222H62.1304V27.0222H56.6001ZM62.1304 16.7566H64.4859C65.2711 16.7566 65.8685 16.6116 66.2781 16.3214C66.6878 16.0142 66.8926 15.5534 66.8926 14.939C66.8926 14.3417 66.6878 13.898 66.2781 13.6078C65.8685 13.3177 65.2711 13.1726 64.4859 13.1726H62.1304V16.7566Z" fill="black"/>
<path d="M75.0274 27.0222V8.97422H88.4178V13.1726H80.3016V15.7582H87.8034V19.9566H80.3016V22.8238H88.4178V27.0222H75.0274Z" fill="black"/>
<path d="M94.9246 27.0222V13.4286H89.7016V8.97422H105.678V13.4286H100.455V27.0222H94.9246Z" fill="black"/>
<path d="M111.902 27.0222V13.4286H106.679V8.97422H122.655V13.4286H117.432V27.0222H111.902Z" fill="black"/>
<path d="M129.311 27.0222V18.3438L130.386 21.3134L122.142 8.97422H128.492L132.665 15.6814H131.615L135.814 8.97422H141.985L133.74 21.3134L134.841 18.3438V27.0222H129.311Z" fill="black"/>
<path d="M143.032 27.0222V8.97422H150.047C151.908 8.97422 153.341 9.41795 154.348 10.3054C155.372 11.1929 155.885 12.4388 155.885 14.043C155.885 15.6132 155.372 16.8505 154.348 17.755C153.341 18.6596 151.908 19.1118 150.047 19.1118H144.619V27.0222H143.032ZM144.619 17.7294H149.945C151.361 17.7294 152.437 17.4137 153.171 16.7822C153.905 16.1337 154.272 15.2206 154.272 14.043C154.272 12.8654 153.905 11.9524 153.171 11.3038C152.437 10.6553 151.361 10.331 149.945 10.331H144.619V17.7294Z" fill="black"/>
<path d="M155.968 27.0222L163.828 8.97422H165.262L173.25 27.0222H171.586L169.333 21.8254L170.076 22.2094H158.964L159.834 21.8254L157.632 27.0222H155.968ZM164.52 10.8942L160.141 21.1598L159.553 20.8526H169.487L169.051 21.1598L164.571 10.8942H164.52Z" fill="black"/>
<path d="M179.825 27.0222L173.578 8.97422H175.242L181.028 25.8958H180.183L186.2 8.97422H187.531L193.266 25.8958H192.498L198.413 8.97422H200L193.676 27.0222H192.165L186.61 10.587H187.122L181.284 27.0222H179.825Z" fill="black"/>
<path d="M8.59413 31.4667C8.20125 31.4667 7.81094 31.5301 7.43825 31.6544C6.75026 31.8836 6.02981 32.0002 5.30465 32C4.60486 31.9993 3.93397 31.7208 3.43939 31.2258C2.94481 30.7308 2.667 30.0597 2.667 29.36C2.66696 29.0133 2.73525 28.67 2.86796 28.3497C3.00067 28.0294 3.19519 27.7384 3.44042 27.4933L4.10984 26.8267C4.91084 26.0257 5.47907 25.0221 5.75378 23.9232C5.93768 23.1835 6.36388 22.5267 6.96448 22.0573C7.56508 21.588 8.30551 21.3331 9.06779 21.3333C9.82971 21.3329 10.5699 21.5874 11.1704 22.0563C11.771 22.5251 12.1974 23.1814 12.3818 23.9205C12.6568 25.0207 13.226 26.0253 14.0284 26.8267L14.6951 27.4933C14.9404 27.7384 15.1349 28.0294 15.2676 28.3497C15.4003 28.67 15.4686 29.0133 15.4686 29.36C15.4686 30.0602 15.1904 30.7317 14.6952 31.2268C14.2001 31.7219 13.5285 32 12.8282 32C12.1031 32.0002 11.3826 31.8836 10.6947 31.6544C10.3228 31.5304 9.93343 31.467 9.54144 31.4667H8.59413Z" fill="black"/>
<path d="M2.1336 25.6C3.31195 25.6 4.26719 24.4061 4.26719 22.9333C4.26719 21.4606 3.31195 20.2667 2.1336 20.2667C0.955244 20.2667 0 21.4606 0 22.9333C0 24.4061 0.955244 25.6 2.1336 25.6Z" fill="black"/>
<path d="M6.40079 20.2667C7.57914 20.2667 8.53439 19.0728 8.53439 17.6C8.53439 16.1272 7.57914 14.9333 6.40079 14.9333C5.22244 14.9333 4.26719 16.1272 4.26719 17.6C4.26719 19.0728 5.22244 20.2667 6.40079 20.2667Z" fill="black"/>
<path d="M11.7348 20.2667C12.9131 20.2667 13.8684 19.0728 13.8684 17.6C13.8684 16.1272 12.9131 14.9333 11.7348 14.9333C10.5564 14.9333 9.60118 16.1272 9.60118 17.6C9.60118 19.0728 10.5564 20.2667 11.7348 20.2667Z" fill="black"/>
<path d="M16.002 25.6C17.1803 25.6 18.1356 24.4061 18.1356 22.9333C18.1356 21.4606 17.1803 20.2667 16.002 20.2667C14.8236 20.2667 13.8684 21.4606 13.8684 22.9333C13.8684 24.4061 14.8236 25.6 16.002 25.6Z" fill="black"/>
<path d="M22.4625 16.5333C22.0696 16.5334 21.6793 16.5968 21.3066 16.7211C20.6195 16.9499 19.9 17.0666 19.1757 17.0667C18.4754 17.0667 17.8039 16.7885 17.3087 16.2934C16.8136 15.7983 16.5354 15.1268 16.5354 14.4267C16.5353 14.08 16.6036 13.7367 16.7363 13.4164C16.869 13.0961 17.0636 12.8051 17.3088 12.56L17.9782 11.8933C18.7792 11.0924 19.3475 10.0888 19.6222 8.98987C19.8061 8.25019 20.2323 7.59334 20.8329 7.12398C21.4335 6.65462 22.1739 6.39976 22.9362 6.4C23.6981 6.39961 24.4382 6.65409 25.0388 7.12293C25.6393 7.59177 26.0658 8.24802 26.2502 8.9872C26.5252 10.0873 27.0944 11.0919 27.8968 11.8933L28.5635 12.56C28.8088 12.8051 29.0033 13.0961 29.136 13.4164C29.2687 13.7367 29.337 14.08 29.337 14.4267C29.337 14.7734 29.2687 15.1167 29.136 15.4369C29.0033 15.7572 28.8088 16.0483 28.5636 16.2934C28.3184 16.5386 28.0274 16.733 27.707 16.8657C27.3867 16.9984 27.0434 17.0667 26.6966 17.0667C25.9724 17.0666 25.2528 16.9499 24.5657 16.7211C24.193 16.5968 23.8027 16.5334 23.4098 16.5333H22.4625Z" fill="black"/>
<path d="M16.002 10.6667C17.1803 10.6667 18.1356 9.47276 18.1356 8C18.1356 6.52724 17.1803 5.33333 16.002 5.33333C14.8236 5.33333 13.8684 6.52724 13.8684 8C13.8684 9.47276 14.8236 10.6667 16.002 10.6667Z" fill="black"/>
<path d="M20.2692 5.33333C21.4475 5.33333 22.4028 4.13943 22.4028 2.66667C22.4028 1.19391 21.4475 0 20.2692 0C19.0908 0 18.1356 1.19391 18.1356 2.66667C18.1356 4.13943 19.0908 5.33333 20.2692 5.33333Z" fill="black"/>
<path d="M25.6032 5.33333C26.7815 5.33333 27.7368 4.13943 27.7368 2.66667C27.7368 1.19391 26.7815 0 25.6032 0C24.4248 0 23.4696 1.19391 23.4696 2.66667C23.4696 4.13943 24.4248 5.33333 25.6032 5.33333Z" fill="black"/>
<path d="M29.8704 10.6667C31.0487 10.6667 32.0039 9.47276 32.0039 8C32.0039 6.52724 31.0487 5.33333 29.8704 5.33333C28.692 5.33333 27.7368 6.52724 27.7368 8C27.7368 9.47276 28.692 10.6667 29.8704 10.6667Z" fill="black"/>
</svg>
