<svg width="580" height="580" viewBox="0 0 580 580" fill="none" xmlns="http://www.w3.org/2000/svg">
<g clip-path="url(#clip0_21_20)">
<path d="M207.509 246.256C245.244 262.115 293.246 233.825 314.529 183.185C335.81 132.547 322.432 78.4475 284.699 62.5893C246.975 46.7351 198.964 75.034 177.683 125.672C156.4 176.313 169.786 230.402 207.509 246.256ZM372.926 420.881C372.326 418.38 371.738 416.011 371.67 414.159C370.134 374.978 344.421 318.742 276.877 289.225L274.269 288.112C207.365 259.995 150.369 279.066 119.326 306.302C118.259 307.231 116.355 308.219 114.339 309.262C111.962 310.479 109.583 311.746 107.361 313.275C84.0926 329.25 66.5622 350.879 58.0159 374.177C48.928 398.907 50.896 422.664 63.5108 441.047C68.6099 448.469 75.1966 453.897 83.1039 457.221C99.409 464.073 118.197 461.163 139.966 457.797C153.814 455.641 168.114 453.421 182.934 453.489C184.544 453.618 190.639 455.341 200.116 459.324C211.387 464.061 219.059 468.465 220.537 469.789C230.57 480.404 238.391 492.084 245.961 503.367C257.559 520.681 268.512 537.024 284.945 543.93C291.998 546.894 299.616 547.906 307.605 546.952C351.68 541.691 381.765 489.08 374.676 429.684C374.32 426.704 373.635 423.773 372.926 420.881ZM353.009 307.405C390.726 323.256 438.735 294.97 460.018 244.329C481.299 193.692 467.915 139.589 430.198 123.738C392.46 107.878 344.453 136.178 323.172 186.817C301.889 237.458 315.271 291.545 353.009 307.405ZM485.199 307.477C454.956 294.767 418.106 316.184 401.279 356.224C384.459 396.246 394.959 437.568 425.187 450.271C455.413 462.974 492.294 441.566 509.114 401.544C525.941 361.505 515.44 320.186 485.199 307.477ZM144.531 248.322C161.359 208.282 150.857 166.964 120.628 154.259C90.397 141.554 53.5282 162.965 36.7011 203.004C19.881 243.026 30.385 284.349 60.6157 297.054C90.8465 309.759 127.711 288.344 144.531 248.322Z" fill="#F4A201"/>
</g>
<defs>
<clipPath id="clip0_21_20">
<rect width="580" height="580" fill="white"/>
</clipPath>
</defs>
</svg>
